<?xml version="1.0" encoding="utf-8"?>
<svg viewBox="0 0 1400 1400" xmlns="http://www.w3.org/2000/svg">
  <defs>
    <style>.cls-1{fill:#ff49da;}.cls-2{fill:#883ff5;}.cls-3{fill:#ffdc00;}.cls-4{fill:#ffb2a0;}.cls-5{fill:#fff;}</style>
  </defs>
  <g id="Backgrounds"/>
  <g id="Hand_gestures" data-name="Hand gestures" transform="matrix(1.244411, 0, 0, 1.229876, -167.223999, -321.826691)" style="">
    <path class="cls-4" d="M 785.042 576.357 C 805.168 552.598 805.168 552.013 805.023 503.285 C 805.023 499.466 805.023 495.349 805.023 490.905 L 805.023 362.727 C 804.453 347.462 785.473 338.468 770.858 346.537 C 764.857 349.85 760.974 355.485 760.388 361.734 L 760.388 440.887 C 760.388 447.246 763.149 451.303 765.061 451.303 C 766.868 451.303 767.998 453.04 767.094 454.429 C 766.676 455.073 765.9 455.47 765.061 455.47 C 762.199 455.47 759.717 453.665 758.029 450.718 C 756.329 453.695 753.846 455.47 750.962 455.47 C 749.154 455.47 748.024 453.734 748.928 452.345 C 749.348 451.7 750.123 451.303 750.962 451.303 C 752.885 451.303 755.691 447.246 755.691 440.887 L 755.691 362.727 C 755.691 362.36 755.691 362.003 755.691 361.636 L 755.691 293.95 C 755.123 278.685 736.142 269.691 721.526 277.761 C 715.525 281.074 711.644 286.709 711.056 292.958 L 711.056 428.378 C 711.056 434.737 713.818 438.804 715.73 438.804 C 717.538 438.804 718.668 440.54 717.764 441.929 C 717.344 442.574 716.569 442.971 715.73 442.971 C 712.868 442.971 710.385 441.155 708.697 438.209 C 706.997 441.185 704.515 442.971 701.63 442.971 C 699.823 442.971 698.693 441.234 699.598 439.846 C 700.016 439.202 700.791 438.804 701.63 438.804 C 703.554 438.804 706.36 434.737 706.36 428.378 L 706.36 293.95 C 706.36 293.583 706.36 293.226 706.36 292.859 L 706.36 281.441 C 706.296 266.168 687.622 256.683 672.745 264.369 C 671.095 265.221 669.575 266.258 668.221 267.453 C 664.034 271.157 661.695 276.195 661.724 281.441 L 661.724 422.128 C 661.724 422.128 661.724 422.188 661.724 422.227 C 661.724 428.527 664.509 432.545 666.421 432.545 C 668.233 432.655 669.23 434.464 668.215 435.802 C 667.809 436.337 667.147 436.676 666.421 436.721 C 663.547 436.721 661.065 434.905 659.365 431.959 C 657.677 434.935 655.195 436.721 652.321 436.721 C 650.51 436.61 649.513 434.8 650.527 433.464 C 650.933 432.928 651.596 432.589 652.321 432.545 C 654.233 432.545 657.018 428.487 657.018 422.128 C 657.018 422.128 657.018 422.049 657.018 422.01 L 657.018 306.45 C 655.93 291.207 636.651 282.725 622.317 291.183 C 616.5 294.616 612.824 300.263 612.382 306.45 L 612.382 459.577 C 612.382 459.577 612.382 459.577 612.382 459.647 C 612.382 467.097 615.356 474.12 620.332 478.445 C 623.131 481.079 627.03 482.572 631.111 482.572 L 632.509 482.572 C 686.469 482.572 696.319 542.162 696.409 542.777 C 696.581 543.917 695.68 544.964 694.396 545.118 C 694.292 545.128 694.187 545.128 694.083 545.118 C 692.91 545.122 691.915 544.355 691.758 543.323 C 689.827 533.204 686.074 523.427 680.644 514.366 C 669.138 495.626 652.422 486.371 631.212 486.738 C 625.871 486.757 620.754 484.84 617.045 481.431 C 611.209 476.352 607.709 468.237 607.686 459.716 C 607.686 459.716 607.686 459.666 607.686 459.647 C 607.686 443.149 591.731 408.855 573.114 392.338 C 565.287 385.394 548.046 384.878 539.57 391.346 C 532.739 396.494 533.42 404.788 541.482 414.698 C 559.227 436.523 570.118 481.084 570.118 503.453 C 570.118 554.612 613.076 574.433 617.648 576.397 L 619.471 580.563 L 619.471 660.242 L 783.924 660.242 L 783.924 580.523 L 785.042 576.357 Z" style=""/>
    <rect class="cls-5" x="615.22" y="596.03" width="169.56" height="37.33" style=""/>
    <rect class="cls-3" x="615.22" y="628.47" width="169.56" height="771.53"/>
  </g>
</svg>