<?xml version="1.0" encoding="utf-8"?>
<svg viewBox="0 0 1400 1400" xmlns="http://www.w3.org/2000/svg">
  <defs>
    <style>.cls-1{fill:#ff49da;}.cls-2{fill:#883ff5;}.cls-3{fill:#ffdc00;}.cls-4{fill:#ffb2a0;}.cls-5{fill:#fff;}</style>
  </defs>
  <g id="Backgrounds"/>
  <g id="Hand_gestures" data-name="Hand gestures" transform="matrix(1.244411, 0, 0, 1.229876, -167.223999, -321.826691)" style="">
    <rect class="cls-5" x="622.22" y="596.03" width="155.56" height="37.33"/>
    <path class="cls-4" d="M 777.024 544.436 L 777.024 653.18 L 623.204 653.18 L 623.204 544.436 C 623.203 543.8 622.903 543.198 622.388 542.798 C 622.127 542.598 596.564 522.26 596.564 493.786 C 596.564 463.402 598.98 457.858 614.993 451.42 C 615.088 451.42 615.15 451.32 615.244 451.28 C 615.339 451.24 615.349 451.28 615.39 451.21 L 615.527 451.12 C 634.594 438.394 645.012 423.83 650.661 415.966 C 654.092 411.166 657.7 407.932 661.309 406.164 C 661.717 405.972 662.103 405.802 662.501 405.652 L 662.596 405.652 C 662.983 405.5 663.369 405.38 663.757 405.27 C 664.777 404.986 665.833 404.835 666.895 404.818 L 667.365 404.818 C 667.605 404.818 667.845 404.818 668.077 404.818 L 668.641 404.878 L 669.289 404.978 C 669.646 405.038 669.99 405.118 670.335 405.21 L 670.942 405.41 L 671.506 405.611 C 671.716 405.692 671.936 405.772 672.144 405.872 C 672.354 405.972 672.49 406.032 672.667 406.124 C 672.846 406.214 673.306 406.454 673.609 406.636 C 673.913 406.816 674.236 407.018 674.529 407.218 C 674.823 407.418 675.063 407.59 675.304 407.79 C 675.544 407.992 675.795 408.172 676.037 408.384 C 676.277 408.594 676.496 408.774 676.705 408.976 C 677.725 409.95 678.65 411.012 679.467 412.15 C 679.77 412.582 680.074 413.014 680.355 413.466 L 680.419 413.566 C 683.026 417.799 684.427 422.619 684.477 427.536 C 684.482 427.589 684.482 427.644 684.477 427.698 C 684.477 428.26 684.477 428.822 684.393 429.374 C 684.393 429.536 684.393 429.696 684.34 429.856 C 684.34 430.308 684.216 430.75 684.132 431.182 C 684.132 431.384 684.059 431.574 684.017 431.775 C 683.922 432.186 683.797 432.588 683.682 432.99 C 683.618 433.172 683.577 433.352 683.514 433.522 C 683.321 434.08 683.098 434.626 682.845 435.16 C 682.511 435.842 682.102 436.566 681.674 437.3 C 681.245 438.032 680.931 438.534 680.513 439.178 C 673.986 449.12 659.917 462.94 639.406 479.502 C 638.11 480.546 638.474 482.544 640.063 483.101 C 640.308 483.187 640.567 483.231 640.828 483.23 C 640.966 483.221 641.104 483.197 641.236 483.158 C 641.352 483.192 641.472 483.216 641.592 483.23 C 656.999 483.23 666.246 493.102 671.288 501.388 C 677.615 511.804 681.256 526.106 681.256 540.62 C 681.256 542.243 683.087 543.257 684.549 542.447 C 685.229 542.07 685.648 541.372 685.648 540.62 C 685.648 525.382 681.799 510.308 675.084 499.259 C 667.941 487.598 658.097 480.768 646.373 479.322 C 652.649 474.153 658.227 469.291 663.108 464.738 C 668.181 472.292 675.963 476.912 683.87 476.912 C 694.329 476.912 702.771 469.068 706.525 459.767 C 710.521 468.988 719.38 476.912 730.018 476.912 C 744.191 476.912 754.786 462.428 754.786 449.472 L 754.786 379.738 C 754.774 378.122 754.596 376.51 754.253 374.928 C 754.46 374.7 754.613 374.434 754.704 374.144 L 774.471 304.46 C 777.745 293.604 784.104 280.666 795.892 280.666 C 803.214 280.666 808.706 282.504 812.126 286.12 C 815.714 289.918 817.126 295.822 816.31 303.616 L 796.824 455.548 C 796.819 455.636 796.819 455.723 796.824 455.81 C 796.824 460.31 796.824 464.478 796.824 468.344 C 796.918 518.262 796.918 518.262 777.463 543.17 C 777.178 543.535 777.024 543.98 777.024 544.436 Z M 645.933 291.674 C 645.288 286.779 644.071 281.967 642.304 277.332 C 637.994 266.506 632.513 261.674 624.521 261.674 C 619.47 261.674 614.397 264.024 610.234 268.282 C 605.423 273.194 602.787 279.682 603.185 285.628 L 616.039 445.616 C 632.556 433.844 641.864 420.838 647.011 413.656 C 650.839 408.302 654.604 404.988 658.108 403.04 L 658.108 379.838 C 658.112 378.171 658.277 376.506 658.6 374.868 C 658.348 374.581 658.186 374.233 658.13 373.862 L 645.933 291.674 Z M 742.234 362.252 L 741.943 361.991 C 741.586 361.66 741.21 361.328 740.833 360.986 C 740.456 360.646 739.881 360.244 739.39 359.912 L 738.941 359.63 C 738.49 359.34 738.04 359.058 737.57 358.798 L 737.058 358.546 C 736.618 358.312 736.169 358.101 735.707 357.914 L 735.143 357.702 C 734.694 357.532 734.234 357.38 733.773 357.24 L 733.177 357.08 C 732.695 356.96 732.204 356.868 731.713 356.788 L 731.158 356.688 C 730.465 356.603 729.766 356.559 729.066 356.558 C 728.405 356.561 727.745 356.604 727.09 356.688 C 726.817 356.688 726.556 356.768 726.294 356.818 L 725.248 357.03 C 724.893 357.117 724.544 357.217 724.202 357.33 L 723.595 357.532 C 716.484 360.022 711.159 367.043 709.36 374.496 C 708.933 376.248 708.708 378.038 708.691 379.838 L 708.691 449.472 C 708.691 459.988 718.23 472.684 730.07 472.684 C 741.733 472.684 750.445 460.43 750.445 449.472 L 750.445 379.838 C 750.426 377.997 750.156 376.167 749.641 374.396 C 748.328 369.792 745.774 365.603 742.234 362.252 Z M 682.981 356.558 C 673.18 356.558 665.482 365.205 663.245 374.476 C 662.808 376.234 662.58 378.031 662.564 379.838 L 662.564 401.172 C 664.01 400.771 665.504 400.558 667.009 400.538 L 667.292 400.538 C 667.907 400.539 668.522 400.578 669.132 400.65 L 669.529 400.71 C 673.446 401.344 677.048 403.163 679.812 405.902 C 685.719 411.749 688.98 419.602 688.88 427.748 C 688.88 427.748 688.88 427.848 688.88 427.888 C 688.865 428.957 688.774 430.025 688.608 431.082 C 688.608 431.252 688.557 431.424 688.525 431.584 C 688.442 432.066 688.347 432.538 688.232 433 C 688.117 433.462 688.045 433.654 687.949 434.004 C 687.855 434.356 687.762 434.668 687.636 435.01 C 687.404 435.672 687.136 436.322 686.831 436.958 C 686.412 437.802 685.91 438.686 685.366 439.6 C 685.136 439.99 684.885 440.402 684.634 440.804 L 684.048 441.698 C 679.487 448.728 672.542 456.322 666.695 462.228 C 670.932 468.716 677.416 472.734 683.912 472.734 C 695.574 472.734 704.287 460.48 704.287 449.522 L 704.287 379.838 C 704.267 378.008 703.999 376.188 703.493 374.426 C 701.003 365.386 692.793 356.558 682.981 356.558 Z" style=""/>
    <rect class="cls-5" x="622.22" y="637.061" width="155.56" height="37.33"/>
    <rect class="cls-1" x="622.22" y="674.391" width="155.56" height="725.61" style=""/>
  </g>
</svg>