<?xml version="1.0" encoding="utf-8"?>
<svg viewBox="0 0 1400 1400" xmlns="http://www.w3.org/2000/svg">
  <defs>
    <style>.cls-1{fill:#ff49da;}.cls-2{fill:#883ff5;}.cls-3{fill:#ffdc00;}.cls-4{fill:#ffb2a0;}.cls-5{fill:#fff;}</style>
  </defs>
  <g id="Backgrounds"/>
  <g id="Hand_gestures" data-name="Hand gestures" transform="matrix(1.244411, 0, 0, 1.229876, -167.223999, -321.826691)" style="">
    <path class="cls-4" d="M 691.571 411.075 C 692.058 411.269 692.532 411.485 692.992 411.721 C 686.583 410.832 677.556 412.102 665.454 419.194 C 655.565 424.988 633.474 439.476 613.598 452.764 L 604.784 413.264 L 584.448 295.146 C 583.33 288.385 584.716 281.995 588.464 277.16 C 592.938 271.297 599.649 267.838 606.428 267.838 C 619.537 267.838 625.566 280.364 628.295 290.75 L 649.403 401.588 C 649.588 402.579 650.568 403.307 651.718 403.308 C 652.871 403.306 653.852 402.574 654.034 401.58 L 675.174 284.604 C 677.333 273.486 686.069 261.674 698.026 261.674 C 704.648 261.674 710.934 265.064 715.274 270.975 C 718.954 275.987 720.184 282.513 718.741 289.333 L 697.243 390.735 L 690.241 408.525 C 689.847 409.55 690.428 410.664 691.571 411.075 Z M 776.794 553.971 C 796.839 530.63 797.51 525.042 797.51 481.292 C 797.51 463.442 792.868 442.945 790.172 432.56 L 767.723 489.557 C 760.948 506.73 735.431 511.057 721.792 497.347 C 717.118 492.647 714.759 486.525 715.229 480.315 C 708.146 485.587 698.398 487.192 689.603 484.535 L 688.418 484.184 C 683.878 482.794 679.865 480.34 676.818 477.091 C 676.446 476.698 676.258 476.194 676.293 475.684 C 662.411 486.938 647.355 496.816 637.322 501.643 C 685.04 521.407 692.903 533.405 692.903 553.667 C 692.903 555.248 690.945 556.234 689.379 555.444 C 688.653 555.078 688.205 554.401 688.205 553.667 C 688.205 535.33 682.612 524.406 630.946 503.567 C 630.946 503.567 630.946 503.567 630.845 503.508 C 630.637 503.409 630.444 503.284 630.275 503.137 C 630.243 503.109 630.211 503.082 630.175 503.06 C 630.005 502.898 629.87 502.713 629.771 502.512 C 629.771 502.512 629.771 502.512 629.771 502.463 C 629.717 502.321 629.682 502.174 629.671 502.024 C 629.638 501.908 629.615 501.792 629.604 501.672 C 629.615 501.564 629.638 501.455 629.671 501.35 C 629.695 501.193 629.736 501.04 629.794 500.891 C 629.794 500.891 629.794 500.891 629.794 500.891 C 629.794 500.891 629.929 500.744 629.984 500.656 C 630.072 500.525 630.177 500.404 630.298 500.294 C 630.415 500.194 630.55 500.11 630.7 500.051 C 630.792 499.983 630.889 499.921 630.991 499.865 C 648.15 493.416 694.86 459.652 704.401 438.734 C 704.699 438.011 704.953 437.273 705.162 436.526 C 706.281 432.003 705.352 426.668 702.925 421.96 C 702.018 420.648 700.856 419.483 699.491 418.521 C 692.299 413.527 681.146 414.993 668.082 422.653 C 656.136 429.658 626.047 449.578 603.9 464.507 C 585.578 475.723 583.676 485.766 583.676 505.981 C 583.693 506.113 583.693 506.248 583.676 506.381 C 583.945 533.825 610.768 553.463 611.036 553.657 C 611.582 554.044 611.899 554.626 611.898 555.241 L 611.898 651.162 L 776.414 651.162 L 776.414 555.641 C 776.252 555.063 776.391 554.452 776.794 553.971 Z M 778.751 401.042 C 777.455 400.367 776.084 399.811 774.658 399.381 C 774.009 399.185 773.349 399.03 772.689 398.883 L 772.04 398.765 C 771.593 398.687 771.134 398.61 770.687 398.551 L 769.926 398.463 L 768.651 398.375 C 768.397 398.375 768.14 398.375 767.879 398.375 C 767.544 398.375 767.209 398.375 766.873 398.375 C 766.537 398.375 765.9 398.375 765.408 398.443 L 764.468 398.541 C 763.986 398.6 763.517 398.667 763.036 398.756 L 762.13 398.922 C 761.615 399.04 761.112 399.176 760.609 399.313 L 759.837 399.527 C 759.075 399.768 758.329 400.042 757.6 400.348 C 752.269 402.597 748.19 406.615 746.269 411.505 L 744.311 416.478 L 723.137 470.213 L 721.056 475.498 C 714.468 489.396 727.574 504.312 744.647 502.347 C 753.546 501.324 760.882 495.754 763.282 488.2 L 788.349 424.548 L 788.505 424.157 C 788.754 423.532 788.968 422.896 789.143 422.253 C 791.337 413.959 787.134 405.381 778.751 401.042 Z M 741.84 410.147 L 746.616 398.013 C 750.501 388.127 744.498 377.359 733.193 373.931 L 732.008 373.568 C 720.688 370.204 708.378 375.436 704.424 385.293 L 695.42 408.154 C 700.654 410.753 704.871 415.325 707.5 420.553 C 710.72 425.846 711.497 432.018 709.67 437.796 C 709.67 437.972 709.569 438.138 709.525 438.304 C 709.312 438.93 709.077 439.555 708.82 440.171 C 704.972 448.612 695.151 461.498 681.774 475.684 C 684.059 477.755 686.878 479.322 689.995 480.256 L 691.113 480.617 C 702.43 483.981 714.735 478.75 718.685 468.894 L 739.871 415.101 L 741.84 410.147 Z" style=""/>
    <rect class="cls-5" x="609.819" y="591.14" width="169.56" height="37.33" style=""/>
    <rect class="cls-2" x="609.819" y="628.47" width="169.56" height="771.53"/>
  </g>
</svg>